<?xml version="1.0" encoding="utf-8" ?><svg xmlns="http://www.w3.org/2000/svg" xmlns:xlink="http://www.w3.org/1999/xlink" width="1024" height="1024" viewBox="0 0 1024 1024"><path fill="#5AEFB6" d="M505.968 289.215C541.413 286.557 585.908 303.237 614.163 324.236C657.035 356.098 690.89 415.456 680.481 469.858C674.873 499.166 652.86 528.07 626.664 542.23C597.401 557.162 552.027 561.252 519.875 562.049C493.831 562.6 471.447 560.796 445.894 556.407C420.208 552.938 401.854 546.944 382.019 529.816C323.482 479.269 338.477 400.808 385.675 348.167C416.068 314.268 459.848 291.941 505.968 289.215Z"/><path fill="#F8F8F8" d="M428.03 381.579C464.437 379.239 495.864 406.82 498.271 443.224C500.677 479.627 473.154 511.104 436.755 513.577C400.262 516.056 368.685 488.446 366.273 451.949C363.86 415.452 391.528 383.925 428.03 381.579Z"/><path fill="#19171E" d="M407.134 398.242C431.598 385.731 461.536 393.076 477.432 415.488C493.329 437.901 490.362 468.584 470.467 487.536C450.572 506.488 419.781 507.962 398.167 490.997C376.552 474.032 370.669 443.773 384.351 419.944C389.684 410.657 397.599 403.118 407.134 398.242Z"/><path fill="#69B4F3" d="M384.351 419.944C389.684 410.657 397.599 403.118 407.134 398.242C408.946 399.172 412.004 399.135 414.093 399.446C434.176 402.432 440.477 430.151 423.374 441.341C417.829 444.969 411.128 446.753 404.505 445.366C397.801 443.909 391.983 439.775 388.402 433.923C384.943 428.275 384.974 425.913 384.351 419.944Z"/><path fill="#F8F8F8" d="M400.75 406.322C402.833 405.504 405.195 405.869 406.935 407.276C408.675 408.684 409.525 410.918 409.16 413.126C408.795 415.335 407.272 417.177 405.172 417.95C401.972 419.128 398.421 417.511 397.209 414.324C395.997 411.137 397.576 407.568 400.75 406.322Z"/><path fill="#5AEFB6" d="M429.135 455.233C440.231 454.621 449.748 463.062 450.467 474.152C451.186 485.242 442.837 494.84 431.755 495.666C420.52 496.504 410.76 488.015 410.031 476.772C409.303 465.53 417.886 455.852 429.135 455.233Z"/><path fill="#F8F8F8" d="M586.575 381.809C622.827 378.494 654.911 405.174 658.262 441.423C661.613 477.672 634.964 509.782 598.718 513.168C562.423 516.56 530.258 489.865 526.903 453.566C523.547 417.268 550.273 385.129 586.575 381.809Z"/><path fill="#19171E" d="M568.164 397.909C592.666 385.804 622.338 393.424 637.975 415.838C653.613 438.251 650.522 468.729 630.703 487.547C610.883 506.364 580.287 507.872 558.713 491.094C537.14 474.316 531.067 444.29 544.425 420.448C549.881 410.71 558.157 402.853 568.164 397.909Z"/><path fill="#69B4F3" d="M544.425 420.448C549.881 410.71 558.157 402.853 568.164 397.909L568.846 398.257C569.597 398.635 571.82 398.91 572.71 399.05C579.26 400.076 584.285 402.574 588.42 407.803C596.373 417.86 594.564 433.868 583.748 441.249C578.215 445.095 571.34 446.489 564.745 445.103C554.417 442.991 546.991 435.791 544.984 425.395L544.787 424.402C544.559 423.215 544.544 421.713 544.425 420.448Z"/><path fill="#F8F8F8" d="M560.327 406.336C562.479 405.567 564.88 406.026 566.596 407.536C568.312 409.046 569.073 411.368 568.583 413.601C568.093 415.834 566.429 417.624 564.239 418.277C560.976 419.249 557.532 417.446 556.472 414.211C555.411 410.975 557.121 407.483 560.327 406.336Z"/><path fill="#5AEFB6" d="M588.108 455.268C599.309 453.935 609.461 461.96 610.749 473.167C612.036 484.374 603.97 494.493 592.758 495.735C581.61 496.971 571.561 488.96 570.281 477.817C569.001 466.675 576.97 456.594 588.108 455.268Z"/><path fill="#19171E" d="M527.463 495.715C531.022 496.668 531.335 498.015 529.336 501.196C520.309 515.563 504.299 513.841 494.574 502.149C491.202 495.474 495.043 494.148 497.889 499.52C502.594 508.403 515.321 509.942 522.56 503.267C525.535 500.524 525.429 499.026 527.463 495.715Z"/><path fill="#F8F8F8" d="M376.328 560.266C361.016 555.278 338.384 542.678 325.448 533.12C306.521 519.136 290.584 500 287.184 476.048C281.057 432.888 317.7 357.857 343.308 323.805C379.33 275.905 431.77 229.728 493.313 221.269C536.812 215.291 584.959 235.389 619.198 261.285C672.468 302.158 710.754 359.474 728.112 424.335C731.627 437.089 734.387 448.001 736.185 461.044C738.306 476.224 729.84 500.074 720.417 512.03C704.651 532.036 681.434 545.832 658.46 556.155C653.341 558.455 647.293 561.468 642.128 563.195C638.853 564.541 631.01 567.588 627.676 568.445L624.384 567.954C615.477 570.024 604.084 573.013 595.204 574.199C587.81 575.186 577.184 574.735 569.567 575.185C567.298 575.319 557.093 575.628 555.279 575.367C565.051 570.623 578.591 568.335 589.517 565.933C611.669 561.064 625.089 557.698 645.54 547.845C713.166 507.57 692.708 419.727 660.467 363.123C621.971 295.535 542.516 251.056 464.981 275.561C453.5 279.189 442.758 285.305 432.412 291.383C382.108 322.911 350.17 372.471 336.469 429.555C322.077 489.516 339.573 539.088 401.836 558.024C407.693 559.806 416.126 561.732 421.668 563.79L421.618 564.375C423.992 565.074 431.09 566.272 431.893 567.061C431.363 570.21 428.382 572.051 427.508 575.799L427.295 576.682C424.272 575.702 419.153 573.885 416.222 573.334L415.498 573.823C408.498 572.23 382.658 563.429 376.328 560.266Z"/><defs><linearGradient id="gradient_0" gradientUnits="userSpaceOnUse" x1="322.18448" y1="391.48697" x2="476.33258" y2="449.14905"><stop offset="0" stop-color="#59F6B2"/><stop offset="1" stop-color="#67D7D7"/></linearGradient></defs><path fill="url(#gradient_0)" d="M376.328 560.266C375.372 558.328 359.996 550.084 356.531 547.531C346.068 539.323 332.015 531.503 323.376 521.33C297.791 491.201 299.644 460.465 310.04 425.33C322.607 382.862 341.173 348.265 368.521 313.444C380.565 298.109 393.298 278.683 415.322 278.418C424.184 278.629 427.102 285.114 432.114 291.035L432.412 291.383C382.108 322.911 350.17 372.471 336.469 429.555C322.077 489.516 339.573 539.088 401.836 558.024C407.693 559.806 416.126 561.732 421.668 563.79L421.618 564.375C423.992 565.074 431.09 566.272 431.893 567.061C431.363 570.21 428.382 572.051 427.508 575.799L427.295 576.682C424.272 575.702 419.153 573.885 416.222 573.334L415.498 573.823C408.498 572.23 382.658 563.429 376.328 560.266Z"/><path fill="#69B4F3" d="M736.185 461.044C738.306 476.224 729.84 500.074 720.417 512.03C704.651 532.036 681.434 545.832 658.46 556.155C653.341 558.455 647.293 561.468 642.128 563.195C638.853 564.541 631.01 567.588 627.676 568.445L624.384 567.954C615.477 570.024 604.084 573.013 595.204 574.199C587.81 575.186 577.184 574.735 569.567 575.185C567.298 575.319 557.093 575.628 555.279 575.367C565.051 570.623 578.591 568.335 589.517 565.933C611.669 561.064 625.089 557.698 645.54 547.845C659.016 547.836 696.633 517.899 706.945 507.621C714.794 499.798 736.189 472.333 736.185 461.044Z"/><path fill="#EBF2F2" d="M624.384 567.954C628.393 566.868 638.912 563.05 642.128 563.195C638.853 564.541 631.01 567.588 627.676 568.445L624.384 567.954Z"/><path fill="#F8F8F8" d="M555.279 575.367C557.093 575.628 567.298 575.319 569.567 575.185C577.184 574.735 587.81 575.186 595.204 574.199C604.084 573.013 615.477 570.024 624.384 567.954L627.676 568.445C612.49 573.591 596.512 577.867 581.197 582.83C541.815 595.592 513.471 611.841 487.332 644.344L487.658 645.174C493.476 639.03 499.485 634.399 506.147 629.285C536.166 606.241 570.212 593.677 606.455 583.923C626.187 599.745 652.524 630.336 666.513 651.429C671.643 658.818 675.202 664.918 679.734 672.684C670.752 689.059 651.195 702.311 634.677 710.315L629.818 689.12C621.014 661.315 610.472 629.164 598.143 602.666C598.628 608.997 604.477 632.496 606.036 639.7C612.355 668.897 619.753 698.232 625.888 727.469C628.026 735.932 629.852 744.562 632.029 752.937C611.798 762.118 585.785 771.202 563.868 774.54C560.572 775.594 548.569 777.031 544.565 777.447C508.084 781.11 471.238 777.768 436.011 767.6C436.927 757.093 438.182 746.618 439.776 736.192C444.28 705.711 449.368 680.032 462.916 651.99C469.291 638.661 477.798 626.461 488.1 615.871C504.861 598.941 532.895 583.179 555.279 575.367Z"/><path fill="#68D1D7" d="M625.888 727.469C628.026 735.932 629.852 744.562 632.029 752.937C611.798 762.118 585.785 771.202 563.868 774.54C560.572 775.594 548.569 777.031 544.565 777.447C508.084 781.11 471.238 777.768 436.011 767.6C436.927 757.093 438.182 746.618 439.776 736.192C445.205 738.516 453.967 740.638 459.777 742.158C481.55 747.857 505.856 752.641 528.462 751.223C535.517 750.779 542.553 750.076 549.557 749.116C552.255 748.726 560.598 747.233 562.819 747.174C567.581 745.811 575.136 744.621 580.511 743.288C591.409 740.484 602.157 737.129 612.716 733.236C616.611 731.842 622.676 729.875 625.888 727.469Z"/><path fill="#69B4F3" d="M625.888 727.469C628.026 735.932 629.852 744.562 632.029 752.937C611.798 762.118 585.785 771.202 563.868 774.54C565.674 772.624 626.901 759.346 630.899 751.369L630.61 750.681L629.605 750.833C627.712 751.1 626.722 751.25 625.183 750.105C624.084 748.137 624.003 746.601 624.48 744.353L625.433 744.251C626.242 742.876 625.397 732.197 623.603 730.947C622.851 729.819 619.62 731.5 617.896 732.113C609.339 735.156 570.416 749.282 562.819 747.174C567.581 745.811 575.136 744.621 580.511 743.288C591.409 740.484 602.157 737.129 612.716 733.236C616.611 731.842 622.676 729.875 625.888 727.469Z"/><path fill="#69B4F3" d="M666.513 651.429C671.643 658.818 675.202 664.918 679.734 672.684C670.752 689.059 651.195 702.311 634.677 710.315L629.818 689.12C630.73 688.8 631.622 688.427 632.489 688.002C645.925 681.525 661.51 665.741 666.513 651.429Z"/><path fill="#6F7071" d="M487.658 645.174C487.42 645.431 486.724 646.425 486.233 646.288C485.955 645.585 486.925 644.797 487.332 644.344L487.658 645.174Z"/><path fill="#F8F8F8" d="M418.547 582.542C442.184 591.706 463.119 599.092 485.124 612.39C454.563 643.679 440.902 691.308 433.186 733.489C432.766 735.152 432.45 736.826 432.111 738.506L431.592 741.007L431.084 743.506C429.71 750.61 428.522 757.779 427.103 764.857C414.23 760.585 405.582 758.729 392.744 752.775C393.054 751.52 393.376 750.276 393.635 749.008L394.382 745.991L394.867 743.992C396.671 736.282 399.417 727.768 400.597 719.982C409.119 689.525 415.417 658.152 423.329 627.506C425.452 619.281 428.444 608.696 429.537 600.478C425.127 608.912 421.817 618.363 418.18 627.15C409.891 647.176 403.298 667.107 396.86 687.77L390.625 710.832C388.139 709.456 379.26 704.63 377.787 702.921C365.433 695.578 352.379 685.529 344.832 673.189C358.081 646.508 380.086 620.608 400.692 599.122C404.566 595.083 414.212 585.706 418.547 582.542Z"/><path fill="#5AEFB6" d="M400.597 719.982C407.781 724.598 424.853 730.662 433.186 733.489C432.766 735.152 432.45 736.826 432.111 738.506L431.592 741.007L431.084 743.506C429.71 750.61 428.522 757.779 427.103 764.857C414.23 760.585 405.582 758.729 392.744 752.775C393.054 751.52 393.376 750.276 393.635 749.008L394.382 745.991L394.867 743.992C396.671 736.282 399.417 727.768 400.597 719.982Z"/><defs><linearGradient id="gradient_1" gradientUnits="userSpaceOnUse" x1="357.89523" y1="677.73163" x2="396.10477" y2="691.26837"><stop offset="0" stop-color="#5DDEC9"/><stop offset="1" stop-color="#69BFE6"/></linearGradient></defs><path fill="url(#gradient_1)" d="M364.155 658.158C364.53 658.946 364.916 659.729 365.315 660.505C372.056 673.613 382.78 683.254 396.86 687.77L390.625 710.832C388.139 709.456 379.26 704.63 377.787 702.921C377.405 701.06 371.1 695.585 369.415 693.928C364.983 689.504 360.732 684.902 356.673 680.134C358.871 672.862 361.855 665.588 364.155 658.158Z"/><path fill="#68D1D7" d="M492.21 151.71C513.482 149.98 584.823 151.469 602.208 165.275C603.993 166.693 605.837 169.219 605.844 171.593C605.848 173.057 605.098 174.476 604.158 175.551C594.42 186.678 548.703 190.125 533.625 190.968C510.679 192.21 439.937 191.427 421.815 176.959C420.217 175.683 418.73 173.967 418.548 171.845C418.405 170.175 419.133 168.486 420.195 167.227C429.918 155.685 477.186 152.685 492.21 151.71Z"/><path fill="#19171E" d="M495.623 159.712C508.86 158.715 573.916 159.694 581.248 170.556C581.507 179.136 537.304 181.931 530.125 182.455C505.11 183.314 478.291 182.531 453.736 176.826C450.578 176.092 444.952 174.748 443.083 172.035C442.866 162.458 487.981 160.226 495.623 159.712Z"/><path fill="#F8F8F8" d="M527.403 801.433C558.477 800.695 583.539 795.188 610.658 779.26C608.844 793.583 607.08 817.869 603.448 831.08C601.611 838.856 597.932 846.078 592.722 852.135C586.017 860.028 576.239 865.591 565.828 866.351C556.373 867.001 547.049 863.865 539.909 857.634C531.585 850.405 527.157 840.065 526.482 829.173C526.729 819.924 527.036 810.677 527.403 801.433Z"/><path fill="#68D1D7" d="M526.482 829.173C530.489 830.659 534.534 834.352 538.586 836.225C561.959 847.032 581.73 842.489 603.448 831.08C601.611 838.856 597.932 846.078 592.722 852.135C586.017 860.028 576.239 865.591 565.828 866.351C556.373 867.001 547.049 863.865 539.909 857.634C531.585 850.405 527.157 840.065 526.482 829.173Z"/><path fill="#F8F8F8" d="M414.966 782.716C439.732 796.839 469.384 800.568 497.609 801.519C497.964 811.108 498.263 820.698 498.505 830.291C497.715 837.548 496.368 843.605 492.382 849.895C487.176 858.069 478.858 863.762 469.355 865.657C459.565 867.612 449.4 865.609 441.084 860.086C429.22 852.314 423.984 840.471 421.097 827.061C417.787 811.292 416.434 798.603 414.966 782.716Z"/><defs><linearGradient id="gradient_2" gradientUnits="userSpaceOnUse" x1="435.14539" y1="855.51227" x2="488.93472" y2="819.83893"><stop offset="0" stop-color="#5AF5B1"/><stop offset="1" stop-color="#6ABCF1"/></linearGradient></defs><path fill="url(#gradient_2)" d="M421.097 827.061C443.172 843.111 466.612 848.629 491.26 834.525C493.476 833.257 496.249 831.279 498.505 830.291C497.715 837.548 496.368 843.605 492.382 849.895C487.176 858.069 478.858 863.762 469.355 865.657C459.565 867.612 449.4 865.609 441.084 860.086C429.22 852.314 423.984 840.471 421.097 827.061Z"/><path fill="#69B4F3" d="M421.668 563.79C452.663 569.887 481.683 575.248 507.66 595.056C503.4 599.274 497.179 603.326 492.13 606.776C480.54 595.513 447.599 584.824 431.796 579.295C427.813 577.901 418.635 575.332 415.498 573.823L416.222 573.334C419.153 573.885 424.272 575.702 427.295 576.682L427.508 575.799C428.382 572.051 431.363 570.21 431.893 567.061C431.09 566.272 423.992 565.074 421.618 564.375L421.668 563.79Z"/><path fill="#5AEFB6" d="M358.104 694.229C359.506 695.447 361.206 698.566 362.544 700.365C365.769 704.702 367.939 706.485 372.082 709.639C373.713 723.145 378.214 728.2 392.083 728.808C389.328 731.578 388.144 732.665 384.802 734.774C367.413 742.465 351.726 726.687 352.891 709.265C353.275 703.528 355.132 699.124 358.104 694.229Z"/><path fill="#5AEFB6" d="M666.093 694.774C680.101 708.483 666.001 744.008 642.339 735.536L641.385 735.207C637.179 732.939 636.699 732.162 633.619 728.524C648.258 728.854 653.423 723.647 655.343 709.566C661.196 702.201 660.701 703.758 665.855 695.164L666.093 694.774Z"/></svg>